<?xml version="1.0" encoding="iso-8859-1"?>
<!-- Uploaded to: SVG Repo, www.svgrepo.com, Generator: SVG Repo Mixer Tools -->
<svg height="800px" width="800px" version="1.1" id="Layer_1" xmlns="http://www.w3.org/2000/svg" xmlns:xlink="http://www.w3.org/1999/xlink" 
	 viewBox="0 0 508 508" xml:space="preserve">
<path style="fill:#F4EFEF;" d="M473.6,55.8H38c-15.6,0-32,8.8-32,26v47.6c0,16.4,15.6,34,32,34h435.2c17.2,0,28.4-18.8,28.4-34V81.8
	C502,65.8,490,55.8,473.6,55.8z"/>
<path style="fill:#CDEEF9;" d="M102,101.4v8.4c0,7.6,8,18,16,18h216.4c7.6,0,12-10,12-18v-8.4c0-7.6-4-9.6-12-9.6h-8h-32h-176
	C110,91.8,102,93.8,102,101.4z"/>
<path style="fill:#E8E3E3;" d="M74.8,100.2C74,92.6,63.2,89,63.2,89c-1.6-0.4-3.6-0.8-5.2-0.8c-9.6,0-17.6,8-17.6,17.6
	s8,17.6,17.6,17.6s17.6-8,17.6-17.6c0-0.8-0.4-2-0.4-3.2C74.8,101.8,74.8,101,74.8,100.2z"/>
<g>
	<path style="fill:#61C2AB;" d="M463.2,95.4c-0.4,0-0.8,0-0.8,0c-6,0-10.4,4.4-10.4,10s4.4,10,10,10c2.8,0,6-1.2,8-3.6
		c1.6-2,2.4-4,2.4-6.4C471.2,97,466.4,95.4,463.2,95.4z"/>
	<path style="fill:#61C2AB;" d="M421.6,95.4c-5.2,0-9.6,4.4-9.6,10s4.4,10,10,10c2.8,0,5.6-1.2,7.6-3.2s2.8-4.4,2.8-6.8
		C432,97.4,421.6,95.4,421.6,95.4z"/>
	<path style="fill:#61C2AB;" d="M382,95.8c-5.6,0-10,4.4-10,10s4.4,10,10,10c2.8,0,5.6-1.2,7.6-3.2s2.8-4.4,2.8-6.8
		C392,96.6,382.4,95.8,382,95.8z"/>
</g>
<path style="fill:#F4EFEF;" d="M174.4,199.8H38c-15.6,0-32,8.8-32,26v47.6c0,16.8,15.6,34.4,32,34.4h78.4c-4-8-6.4-16.8-6.4-26
	c0-2.8,0.4-6,0.8-8.8c-7.6-2-13.2-10.4-13.2-19.2v-8.4c0-10,10.4-13.6,20-13.6h28c0.4,0,1.2-0.8,1.2-0.4c4.8-1.6,10.4-3.2,15.6-3.2
	c0.4,0,0.4-0.4,0.8-0.4c1.2,0,2.4,0,3.6,0c0-1.2,0-2.4,0-3.6c0-2,0-2.8,0.4-4.8C168.4,211.8,170.8,203.8,174.4,199.8z"/>
<path style="fill:#CC9999;" d="M264.4,199.8c0.8,0,1.6,1.6,2,3.2c0.4,0.4,0.4,0.4,0.8,0.8l0.4,0.4c4.4-2.4,9.2-4.4,14.4-4.4H264.4z"
	/>
<path style="fill:#F4EFEF;" d="M340.8,229c0.8,0,1.2-0.4,1.6-0.4c0.4,0,1.2-0.4,1.6-0.4c28.4,0,51.6,24.4,51.6,53.6
	c0,9.2-2.4,18-6.8,26h84.8c17.2,0,28.4-18.8,28.4-34.4v-47.6c0-16-12-26-28.4-26H304C320,199.8,334,213.4,340.8,229z"/>
<path style="fill:#E8E3E3;" d="M63.6,232.6c-2-0.8-4-0.8-5.6-0.8c-9.6,0-17.6,8-17.6,17.6S48.4,267,58,267s17.6-8,17.6-17.6
	c0-2-0.4-3.6-0.8-5.2C71.2,234.2,63.6,233,63.6,232.6z"/>
<g>
	<path style="fill:#61C2AB;" d="M462,259.8c2.8,0,6-1.2,8-3.6c1.6-2,2.4-4,2.4-6.4c-0.8-9.2-6-10.4-9.2-10.4c-0.4,0-0.8,0-0.8,0
		c-6,0-10.4,4.4-10.4,10S456.4,259.8,462,259.8z"/>
	<path style="fill:#61C2AB;" d="M422,259.8c3.2,0,6-1.2,8-3.6c1.6-2,2.4-4,2-6.4c-1.2-9.6-10-10.4-10.4-10.4c-5.6,0-10,4.4-10,10
		C412,255,416.4,259.8,422,259.8z"/>
</g>
<path style="fill:#F4EFEF;" d="M473.6,343.8H334H38c-15.6,0-32,8.4-32,25.6V417c0,16.8,15.6,34.4,32,34.4h435.2
	c17.2,0,28.4-18.8,28.4-34.4v-47.6C502,353,490.4,343.8,473.6,343.8z"/>
<path style="fill:#CDEEF9;" d="M102,389v8.4c0,7.6,8.4,18.4,16,18.4h216.4c7.6,0,12-10.4,12-18.4V389c0-7.6-4-9.2-12-9.2h-8h-32
	h-176C110,379.8,102,381.8,102,389z"/>
<path style="fill:#E8E3E3;" d="M74.8,387.8c-0.4-3.6-7.2-8.8-11.6-11.6c-1.6-0.4-3.6-0.8-5.2-0.8c-9.6,0-17.6,8-17.6,17.6
	s8,17.6,17.6,17.6s17.6-8,17.6-17.6c0-1.2-0.4-2.4-0.4-3.6C74.8,389,74.8,388.6,74.8,387.8z"/>
<g>
	<path style="fill:#61C2AB;" d="M462,383.4c-5.6,0-10,4.8-10,10c0,5.6,4.4,10,10,10s10-4.4,10-10.4
		C472.4,386.2,463.2,383.4,462,383.4z"/>
	<path style="fill:#61C2AB;" d="M421.6,383.4c-5.2,0-10,4.4-10,10s4.4,10,10,10c3.2,0,6.8-1.6,8.8-4c0.8-1.2,2-3.2,1.6-5.6
		C430,384.2,422,383.4,421.6,383.4z"/>
	<path style="fill:#61C2AB;" d="M382,383.4c-5.6,0-10,4.4-10,10s4.4,10,10,10c2.8,0,5.6-1.2,7.6-3.2c1.6-2,2.8-4.4,2.4-6.8
		C391.6,384.2,382.4,383.4,382,383.4z"/>
</g>
<path style="fill:#CDEEF9;" d="M139.2,235.8h-21.6c-7.6,0-16,2-16,9.6v8.4c0,6.8,4.4,14,10,15.6C115.6,254.6,126,239.8,139.2,235.8z
	"/>
<path style="fill:#73BADD;" d="M344,232.2c-0.4,0-1.2,0-1.6,0c-0.8,0-1.6,0-2.8,0c-0.8,0-1.6-0.4-2-1.2
	c-7.6-18.4-24.8-30.4-44.4-30.4c-7.6,0-15.2,2-22,5.2c-1.2,0.8-2.4,1.2-3.6,2c-0.4,0.4-1.2,0.4-1.6,0.4c-0.4,0-1.2-0.8-1.2-1.2
	c-7.2-18.4-25.2-30.8-44.8-30.8c-26.4,0-48,21.6-48,48c0,2,0,3.6,0.4,5.6c0,0.8,0,1.2-0.4,1.6s-1.2,0.8-1.6,0.4
	c-2-0.4-4-0.4-5.6-0.4c-0.8,0-2,0-2.8,0c-6,0.4-11.6,1.6-16.8,4c-12.8,5.6-22.8,16.4-27.2,29.6c-1.6,4.8-2.4,9.6-2.4,14.8
	c0,9.2,2.4,18,6.8,25.2c0.4,0.8,1.2,1.6,1.6,2.4c0.4,0.4,0.4,0.8,0.8,0.8c8,10.8,20.8,18.4,36.8,20.4h183.6
	c17.2-2.4,30.8-10.8,39.2-22.4c5.6-7.6,8.4-16.8,8.4-26.4C391.6,253.8,370.4,232.2,344,232.2z"/>
<path d="M473.6,169.8H278l0,0H38c-19.2,0-38-20-38-40V82.2c0-20.8,19.6-32,38-32h435.2c20.8,0,34.4,12.8,34.4,32v47.6
	C508,148.6,494,169.8,473.6,169.8z M278,161.8h195.2c15.2,0,26.4-16.8,26.4-32V82.2c0-14.8-10.4-24-26.4-24H38c-14.8,0-30,8.4-30,24
	v47.6c0,16,15.2,32,30,32H278L278,161.8z"/>
<path d="M334,133.8H118c-10.4,0-18-8-18-20v-12.4c0-10.4,6-15.6,18-15.6h176c2.4,0,4,1.6,4,4s-1.6,4-4,4H118c-8.4,0-10,2.8-10,7.6
	v12.4c0,5.6,2.4,12,10,12h216.4c7.2,0,10-6.4,10-12v-12.4c0-5.2-1.6-7.6-10-7.6h-8c-2.4,0-4-1.6-4-4s1.6-4,4-4h8
	c12,0,18,5.2,18,15.6v12.4C352,125.8,344.8,133.8,334,133.8z"/>
<path d="M57.6,129.4c-13.2,0-23.6-10.8-23.6-23.6s10.8-23.6,23.6-23.6c2.4,0,4.8,0.4,7.2,1.2c2,0.8,3.2,2.8,2.4,5.2
	c-0.8,2-2.8,3.2-5.2,2.4c-1.6-0.4-3.2-0.8-4.8-0.8c-8.8,0-15.6,7.2-15.6,15.6s7.2,15.6,15.6,15.6c8.8,0,15.6-7.2,15.6-15.6
	c0-1.6-0.4-3.2-0.8-4.8c-0.8-2,0.4-4.4,2.8-4.8c2-0.8,4.4,0.4,4.8,2.8c0.8,2.4,1.2,4.4,1.2,6.8C81.6,119,70.8,129.4,57.6,129.4z"/>
<path d="M462,121.8c-8.8,0-16-7.2-16-16s7.2-16,16-16c2.4,0,4,1.6,4,4s-1.6,4-4,4c-4.4,0-8,3.6-8,8s3.6,8,8,8s8-3.6,8-8
	c0-2.4,1.6-4,4-4s4,1.6,4,4C478,114.6,470.8,121.8,462,121.8z"/>
<path d="M422,121.8c-8.8,0-16-7.2-16-16s7.2-16,16-16c2.4,0,4,1.6,4,4s-1.6,4-4,4c-4.4,0-8,3.6-8,8s3.6,8,8,8s8-3.6,8-8
	c0-2.4,1.6-4,4-4s4,1.6,4,4C438,114.6,430.8,121.8,422,121.8z"/>
<path d="M382,121.8c-8.8,0-16-7.2-16-16s7.2-16,16-16c2.4,0,4,1.6,4,4s-1.6,4-4,4c-4.4,0-8,3.6-8,8s3.6,8,8,8s8-3.6,8-8
	c0-2.4,1.6-4,4-4s4,1.6,4,4C398,114.6,390.8,121.8,382,121.8z"/>
<path d="M118,313.8H38c-19.2,0-38-20-38-40.4v-47.6c0-19.6,18-32,34.8-32H174c2.4,0,4,1.6,4,4s-1.6,4-4,4H34.8
	C22,201.8,8,211,8,225.8v47.6c0,16,15.2,32.4,30,32.4h80c2.4,0,4,1.6,4,4S120.4,313.8,118,313.8z"/>
<path d="M473.6,313.8H386c-2.4,0-4-1.6-4-4s1.6-4,4-4h87.6c15.2,0,26.4-17.2,26.4-32.4v-47.6c0-14.4-10.4-24-26.4-24H262
	c-2.4,0-4-1.6-4-4s1.6-4,4-4h211.6c20.8,0,34.4,12.8,34.4,32v47.6C508,292.6,494,313.8,473.6,313.8z"/>
<path d="M57.6,273.4c-13.2,0-23.6-10.8-23.6-23.6s10.8-23.6,23.6-23.6c2.4,0,4.8,0.4,7.2,1.2c2,0.8,3.2,2.8,2.4,5.2
	c-0.8,2-2.8,3.2-5.2,2.4c-1.6-0.4-3.2-0.8-4.8-0.8c-8.8,0-15.6,7.2-15.6,15.6c0,8.8,7.2,15.6,15.6,15.6c8.8,0,15.6-7.2,15.6-15.6
	c0-1.6-0.4-3.2-0.8-4.8c-0.8-2,0.4-4.4,2.8-4.8c2-0.8,4.4,0.4,4.8,2.8c0.8,2.4,1.2,4.4,1.2,6.8C81.6,262.6,70.8,273.4,57.6,273.4z"
	/>
<path d="M462,265.8c-8.8,0-16-7.2-16-16s7.2-16,16-16c2.4,0,4,1.6,4,4s-1.6,4-4,4c-4.4,0-8,3.6-8,8s3.6,8,8,8s8-3.6,8-8
	c0-2.4,1.6-4,4-4s4,1.6,4,4C478,258.6,470.8,265.8,462,265.8z"/>
<path d="M422,265.8c-8.8,0-16-7.2-16-16s7.2-16,16-16c2.4,0,4,1.6,4,4s-1.6,4-4,4c-4.4,0-8,3.6-8,8s3.6,8,8,8s8-3.6,8-8
	c0-2.4,1.6-4,4-4s4,1.6,4,4C438,258.6,430.8,265.8,422,265.8z"/>
<path d="M473.6,457.8H38c-19.2,0-38-20-38-40.4v-47.6c0-20.8,19.2-31.6,38-31.6h435.2c20.8,0,34.4,12.8,34.4,31.6v47.6
	C508,436.6,494,457.8,473.6,457.8z M38,345.8c-14.8,0-30,8-30,23.6V417c0,16,15.2,32.4,30,32.4h435.2c15.2,0,26.4-17.2,26.4-32.4
	v-47.6c0-14.8-10-23.6-26.4-23.6H38z"/>
<path d="M334,421.8H118c-10.4,0-18-8.4-18-20.4V389c0-15.2,13.6-15.2,18-15.2h176c2.4,0,4,1.6,4,4s-1.6,4-4,4H118
	c-8.4,0-10,2.4-10,7.2v12.4c0,6,3.2,12.4,10,12.4h216.4c6.8,0,10-6,10-12.4V389c0-5.2-1.6-7.2-10-7.2h-8c-2.4,0-4-1.6-4-4s1.6-4,4-4
	h8c4.4,0,18,0,18,15.2v12.4C352,413.4,344.4,421.8,334,421.8z"/>
<path d="M57.6,417C44.4,417,34,406.2,34,393.4s10.8-23.6,23.6-23.6c2.4,0,4.8,0.4,7.2,1.2c2,0.8,3.2,2.8,2.4,5.2
	c-0.8,2-2.8,3.2-5.2,2.4c-1.6-0.4-3.2-0.8-4.8-0.8c-8.8,0-15.6,7.2-15.6,15.6S48.8,409,57.2,409c8.8,0,15.6-7.2,15.6-15.6
	c0-1.6-0.4-3.2-0.8-4.8c-0.8-2,0.4-4.4,2.8-5.2c2-0.8,4.4,0.4,4.8,2.8c0.8,2.4,1.2,4.4,1.2,6.8C81.6,406.6,70.8,417,57.6,417z"/>
<path d="M462,409.4c-8.8,0-16-7.2-16-16s7.2-16,16-16c2.4,0,4,1.6,4,4s-1.6,4-4,4c-4.4,0-8,3.6-8,8s3.6,8,8,8s8-3.6,8-8
	c0-2.4,1.6-4,4-4s4,1.6,4,4C478,402.2,470.8,409.4,462,409.4z"/>
<path d="M422,409.4c-8.8,0-16-7.2-16-16s7.2-16,16-16c2.4,0,4,1.6,4,4s-1.6,4-4,4c-4.4,0-8,3.6-8,8s3.6,8,8,8s8-3.6,8-8
	c0-2.4,1.6-4,4-4s4,1.6,4,4C438,402.2,430.8,409.4,422,409.4z"/>
<path d="M382,409.4c-8.8,0-16-7.2-16-16s7.2-16,16-16c2.4,0,4,1.6,4,4s-1.6,4-4,4c-4.4,0-8,3.6-8,8s3.6,8,8,8s8-3.6,8-8
	c0-2.4,1.6-4,4-4s4,1.6,4,4C398,402.2,390.8,409.4,382,409.4z"/>
<path d="M344,337.8H160h-0.4c-30.4-4.4-51.2-26.8-51.2-56c0-30.4,26.8-57.2,57.2-56c0-0.4,0-1.2,0-1.6c0-30,24.4-54,54-54
	c20.8,0,39.6,12,48.8,30.4c7.6-4,16-6,24.8-6c21.2,0,40.4,12.4,49.2,31.6h0.4c0.4,0,0.8,0,1.6,0c29.6,0,53.6,24.8,53.6,55.2
	c0,28.4-22,51.6-53.2,56C344.4,337.8,344,337.8,344,337.8z M160.4,329.8H344c27.2-4,46-23.6,46-48c0-26-20.4-47.2-45.6-47.2
	c-0.8,0-1.6,0-2.4,0c-0.8,0-1.2,0-1.6,0c-1.6,0-3.6-0.8-4-2.4c-7.2-17.6-24-29.2-42.8-29.2c-8.8,0-17.2,2.4-24.4,6.8
	c-1.2,0.8-2.4,0.8-3.2,0.4c-1.2-0.4-2-1.2-2.4-2.4c-6.8-17.6-24-29.6-43.2-29.6c-25.6,0-46,20.8-46,46c0,1.6,0,3.6,0.4,5.6
	c0,1.2-0.4,2.4-1.2,3.2c-0.8,0.8-2,1.2-3.2,1.2c-2-0.4-3.6-0.4-5.6-0.4c-25.2,0-47.6,22.4-47.6,48
	C116.4,306.6,134,325.8,160.4,329.8z"/>
<path d="M112.4,275.8c-0.4,0-0.4,0-0.8,0c-11.6-2.4-11.6-12.4-11.6-18v-12.4c0-10.4,6-15.6,18-15.6h24c2.4,0,4,1.6,4,4s-1.6,4-4,4
	h-24c-8.4,0-10,2.4-10,7.6v12.4c0,7.6,1.2,9.2,5.2,10c2,0.4,3.6,2.4,3.2,4.8C116,274.2,114.4,275.8,112.4,275.8z"/>
</svg>